<svg xmlns="http://www.w3.org/2000/svg" xmlns:xlink="http://www.w3.org/1999/xlink" viewBox="0 0 179 179" width="179" height="179" preserveAspectRatio="xMidYMid meet" style="width: 100%; height: 100%; transform: translate3d(0px, 0px, 0px); content-visibility: visible;"><defs><clipPath id="__lottie_element_22"><rect width="179" height="179" x="0" y="0"></rect></clipPath><radialGradient id="__lottie_element_26" spreadMethod="pad" gradientUnits="userSpaceOnUse" cx="-0.3720000088214874" cy="-0.5389999747276306" r="91.33000019192696" fx="-0.3720000088214874" fy="-0.5389999747276306"><stop offset="0%" stop-color="rgb(131,143,188)"></stop><stop offset="50%" stop-color="rgb(162,169,194)"></stop><stop offset="100%" stop-color="rgb(193,194,199)"></stop></radialGradient><radialGradient id="__lottie_element_27" spreadMethod="pad" gradientUnits="userSpaceOnUse" cx="-0.3720000088214874" cy="-0.5389999747276306" r="91.33000019192696" fx="-0.3720000088214874" fy="-0.5389999747276306"><stop offset="0%" stop-color="rgb(131,143,188)"></stop><stop offset="50%" stop-color="rgb(162,169,194)"></stop><stop offset="100%" stop-color="rgb(193,194,199)"></stop></radialGradient><linearGradient id="__lottie_element_28" spreadMethod="pad" gradientUnits="userSpaceOnUse" x1="14.668999671936035" y1="-0.5389999747276306" x2="100.08000183105469" y2="-0.5389999747276306"><stop offset="0%" stop-color="rgb(131,143,188)"></stop><stop offset="50%" stop-color="rgb(162,169,194)"></stop><stop offset="100%" stop-color="rgb(193,194,199)"></stop></linearGradient><linearGradient id="__lottie_element_29" spreadMethod="pad" gradientUnits="userSpaceOnUse" x1="35.5880012512207" y1="35.46099853515625" x2="-38.89899826049805" y2="-39.025001525878906"><stop offset="0%" stop-color="rgb(131,143,188)"></stop><stop offset="50%" stop-color="rgb(162,169,194)"></stop><stop offset="100%" stop-color="rgb(193,194,199)"></stop></linearGradient><linearGradient id="__lottie_element_30" spreadMethod="pad" gradientUnits="userSpaceOnUse" x1="-23.41200065612793" y1="-20.538999557495117" x2="33.19200134277344" y2="28.04199981689453"><stop offset="0%" stop-color="rgb(131,143,188)"></stop><stop offset="50%" stop-color="rgb(162,169,194)"></stop><stop offset="100%" stop-color="rgb(193,194,199)"></stop></linearGradient></defs><g clip-path="url(#__lottie_element_22)"><g transform="matrix(1,0,0,1,-232.87200927734375,-301.03900146484375)" opacity="1" style="display: block;"><g opacity="1" transform="matrix(1,0,0,1,0,0)"><g opacity="0.9600405999999726" transform="matrix(0.6779817342758179,0,0,0.6779817342758179,322.37200927734375,390.53900146484375)"><path fill="url(#__lottie_element_26)" fill-opacity="1" d=" M73.50700378417969,0 C73.50700378417969,40.59700012207031 40.59700012207031,73.50700378417969 0,73.50700378417969 C-40.59700012207031,73.50700378417969 -73.50700378417969,40.59700012207031 -73.50700378417969,0 C-73.50700378417969,-40.59700012207031 -40.59700012207031,-73.50700378417969 0,-73.50700378417969 C40.59700012207031,-73.50700378417969 73.50700378417969,-40.59700012207031 73.50700378417969,0z"></path></g><g opacity="0.4600405999999728" transform="matrix(0.902981698513031,0,0,0.902981698513031,322.37200927734375,390.53900146484375)"><path fill="url(#__lottie_element_27)" fill-opacity="1" d=" M73.50700378417969,0 C73.50700378417969,40.59700012207031 40.59700012207031,73.50700378417969 0,73.50700378417969 C-40.59700012207031,73.50700378417969 -73.50700378417969,40.59700012207031 -73.50700378417969,0 C-73.50700378417969,-40.59700012207031 -40.59700012207031,-73.50700378417969 0,-73.50700378417969 C40.59700012207031,-73.50700378417969 73.50700378417969,-40.59700012207031 73.50700378417969,0z"></path></g></g><g opacity="1" transform="matrix(1,0,0,1,0,0)"><g opacity="1" transform="matrix(1,0,0,1,0,0)"><g opacity="1" transform="matrix(1,0,0,1,324.33099365234375,390.53900146484375)"><path fill="url(#__lottie_element_28)" fill-opacity="1" d=" M47.93000030517578,0 C47.93000030517578,26.47100067138672 26.47100067138672,47.93000030517578 0,47.93000030517578 C-26.47100067138672,47.93000030517578 -47.93000030517578,26.47100067138672 -47.93000030517578,0 C-47.93000030517578,-26.47100067138672 -26.47100067138672,-47.93000030517578 0,-47.93000030517578 C26.47100067138672,-47.93000030517578 47.93000030517578,-26.47100067138672 47.93000030517578,0z"></path></g><g opacity="1" transform="matrix(1,0,0,1,320.4129943847656,390.53900146484375)"><path fill="url(#__lottie_element_29)" fill-opacity="1" d=" M47.93000030517578,0 C47.93000030517578,26.47100067138672 26.47100067138672,47.93000030517578 0,47.93000030517578 C-26.47100067138672,47.93000030517578 -47.93000030517578,26.47100067138672 -47.93000030517578,0 C-47.93000030517578,-26.47100067138672 -26.47100067138672,-47.93000030517578 0,-47.93000030517578 C26.47100067138672,-47.93000030517578 47.93000030517578,-26.47100067138672 47.93000030517578,0z"></path></g><g opacity="1" transform="matrix(1,0,0,1,320.4129943847656,390.53900146484375)"><path fill="url(#__lottie_element_30)" fill-opacity="1" d=" M40.3390007019043,0 C40.3390007019043,22.27899932861328 22.27899932861328,40.3390007019043 0,40.3390007019043 C-22.27899932861328,40.3390007019043 -40.3390007019043,22.27899932861328 -40.3390007019043,0 C-40.3390007019043,-22.27899932861328 -22.27899932861328,-40.3390007019043 0,-40.3390007019043 C22.27899932861328,-40.3390007019043 40.3390007019043,-22.27899932861328 40.3390007019043,0z"></path></g><g opacity="1" transform="matrix(1,0,0,1,320.4129943847656,390.53900146484375)"><path stroke-linecap="butt" stroke-linejoin="miter" fill-opacity="0" stroke-miterlimit="10" stroke="rgb(195,203,226)" stroke-opacity="1" stroke-width="4" d=" M40.3390007019043,0 C40.3390007019043,22.27899932861328 22.27899932861328,40.3390007019043 0,40.3390007019043 C-22.27899932861328,40.3390007019043 -40.3390007019043,22.27899932861328 -40.3390007019043,0 C-40.3390007019043,-22.27899932861328 -22.27899932861328,-40.3390007019043 0,-40.3390007019043 C22.27899932861328,-40.3390007019043 40.3390007019043,-22.27899932861328 40.3390007019043,0z"></path></g></g><g opacity="1" transform="matrix(1,0,0,1,-327.25,-382.25)"><g opacity="1" transform="matrix(1,0,0,1,328.50299072265625,382.197998046875)"><g opacity="1" transform="matrix(1,0,0,1,0,0)"><g opacity="1" transform="matrix(1,0,0,1,328.50299072265625,382.197998046875)"><path fill="rgb(237,238,239)" fill-opacity="1" d=" M-8.095000267028809,-18.625 C-8.095000267028809,-18.625 -8.456999778747559,-17.395999908447266 -8.456999778747559,-17.395999908447266 C-8.456999778747559,-17.395999908447266 -8.456999778747559,18.263999938964844 -8.456999778747559,18.263999938964844 C-8.456999778747559,18.263999938964844 -8.095000267028809,18.625 -8.095000267028809,18.625 C-8.095000267028809,18.625 8.456999778747559,8.840999603271484 8.456999778747559,8.840999603271484 C8.456999778747559,8.840999603271484 -8.095000267028809,-18.625 -8.095000267028809,-18.625z"></path></g><g opacity="1" transform="matrix(1,0,0,1,312.1310119628906,382.197998046875)"><path fill="rgb(255,255,255)" fill-opacity="1" d=" M8.277000427246094,-18.625 C8.277000427246094,-18.625 -8.277000427246094,8.840999603271484 -8.277000427246094,8.840999603271484 C-8.277000427246094,8.840999603271484 8.277000427246094,18.625 8.277000427246094,18.625 C8.277000427246094,18.625 8.277000427246094,1.3170000314712524 8.277000427246094,1.3170000314712524 C8.277000427246094,1.3170000314712524 8.277000427246094,-18.625 8.277000427246094,-18.625z"></path></g><g opacity="1" transform="matrix(1,0,0,1,328.5870056152344,405.84100341796875)"><path fill="rgb(237,238,239)" fill-opacity="1" d=" M-8.180000305175781,-1.8839999437332153 C-8.180000305175781,-1.8839999437332153 -8.383000373840332,-1.6349999904632568 -8.383000373840332,-1.6349999904632568 C-8.383000373840332,-1.6349999904632568 -8.383000373840332,11.067999839782715 -8.383000373840332,11.067999839782715 C-8.383000373840332,11.067999839782715 -8.180000305175781,11.663000106811523 -8.180000305175781,11.663000106811523 C-8.180000305175781,11.663000106811523 8.383000373840332,-11.663000106811523 8.383000373840332,-11.663000106811523 C8.383000373840332,-11.663000106811523 -8.180000305175781,-1.8839999437332153 -8.180000305175781,-1.8839999437332153z"></path></g><g opacity="1" transform="matrix(1,0,0,1,312.1310119628906,405.84100341796875)"><path fill="rgb(255,255,255)" fill-opacity="1" d=" M8.277000427246094,11.663000106811523 C8.277000427246094,11.663000106811523 8.277000427246094,-1.8839999437332153 8.277000427246094,-1.8839999437332153 C8.277000427246094,-1.8839999437332153 -8.277000427246094,-11.663000106811523 -8.277000427246094,-11.663000106811523 C-8.277000427246094,-11.663000106811523 8.277000427246094,11.663000106811523 8.277000427246094,11.663000106811523z"></path></g><g opacity="1" transform="matrix(1,0,0,1,328.68499755859375,392.16900634765625)"><path fill="rgb(213,216,219)" fill-opacity="1" d=" M8.276000022888184,-1.1299999952316284 C8.276000022888184,-1.1299999952316284 -8.276000022888184,8.654000282287598 -8.276000022888184,8.654000282287598 C-8.276000022888184,8.654000282287598 -8.276000022888184,-8.654000282287598 -8.276000022888184,-8.654000282287598 C-8.276000022888184,-8.654000282287598 8.276000022888184,-1.1299999952316284 8.276000022888184,-1.1299999952316284z"></path></g><g opacity="1" transform="matrix(1,0,0,1,312.1310119628906,392.16900634765625)"><path fill="rgb(237,238,239)" fill-opacity="1" d=" M8.277000427246094,-8.654000282287598 C8.277000427246094,-8.654000282287598 8.277000427246094,8.654000282287598 8.277000427246094,8.654000282287598 C8.277000427246094,8.654000282287598 -8.277000427246094,-1.1299999952316284 -8.277000427246094,-1.1299999952316284 C-8.277000427246094,-1.1299999952316284 8.277000427246094,-8.654000282287598 8.277000427246094,-8.654000282287598z"></path></g></g></g></g></g></g></g></svg>